<svg width="1637" height="1646" viewBox="0 0 1637 1646" fill="none" xmlns="http://www.w3.org/2000/svg">
<path fill-rule="evenodd" clip-rule="evenodd" d="M819 152.58C1112 152.58 1349.57 348.53 1349.57 590.26C1349.57 831.99 1112 1027.92 819 1027.92C526 1027.92 288.42 832 288.42 590.26C288.42 348.52 526 152.58 819 152.58Z" fill="#FF6501"/>
<path fill-rule="evenodd" clip-rule="evenodd" d="M691.75 382.53C725.75 382.53 753.4 418.43 753.4 462.7C753.4 506.97 725.79 542.87 691.75 542.87C657.71 542.87 630.08 506.97 630.08 462.7C630.08 418.43 657.68 382.53 691.75 382.53Z" fill="#A34E00"/>
<path fill-rule="evenodd" clip-rule="evenodd" d="M677.17 369.64C711.17 369.64 738.82 405.53 738.82 449.81C738.82 494.09 711.21 529.97 677.17 529.97C643.13 529.97 615.5 494.08 615.5 449.81C615.5 405.54 643.11 369.64 677.17 369.64Z" fill="#11171E"/>
<path fill-rule="evenodd" clip-rule="evenodd" d="M317.24 159.76C327.521 159.758 337.557 162.897 346.004 168.757C354.452 174.617 360.907 182.918 364.507 192.548C368.106 202.179 368.677 212.679 366.143 222.643C363.609 232.607 358.092 241.559 350.33 248.3C280.91 316.173 233.91 430.043 209.33 589.91C202.017 415.303 221.907 283.85 269 195.55L268.81 196.2C271.847 185.693 278.217 176.457 286.959 169.885C295.701 163.312 306.343 159.759 317.28 159.76" fill="white"/>
<path fill-rule="evenodd" clip-rule="evenodd" d="M693.69 10C701.042 15.5811 706.515 23.2747 709.375 32.0512C712.234 40.8276 712.346 50.2682 709.693 59.1096C707.041 67.951 701.751 75.7713 694.533 81.5241C687.314 87.2769 678.51 90.6877 669.3 91.3C582.793 102.167 487.36 158.11 383 259.13C472.547 130.263 558.114 47.0134 639.7 9.38002L639.21 9.74C647.086 3.86991 656.657 0.719053 666.48 0.762342C676.303 0.805631 685.846 4.04071 693.67 9.97999" fill="#FF6501"/>
<path fill-rule="evenodd" clip-rule="evenodd" d="M373.5 948.17C383.478 948.172 393.231 951.133 401.527 956.678C409.822 962.223 416.287 970.104 420.104 979.323C423.92 988.542 424.917 998.686 422.969 1008.47C421.02 1018.26 416.213 1027.25 409.156 1034.3C402.1 1041.35 393.109 1046.16 383.323 1048.1C373.536 1050.05 363.392 1049.05 354.174 1045.23C344.957 1041.41 337.079 1034.94 331.537 1026.64C325.995 1018.34 323.038 1008.59 323.04 998.61C323.041 991.985 324.347 985.425 326.884 979.304C329.421 973.184 333.138 967.623 337.823 962.939C342.509 958.256 348.071 954.541 354.193 952.006C360.314 949.472 366.875 948.169 373.5 948.17Z" fill="#FF6501"/>
<path fill-rule="evenodd" clip-rule="evenodd" d="M133.07 782.84C151.497 829.673 207.38 867.693 300.72 896.9C254.5 858.08 231.767 816.21 232.52 771.29C232.58 767.183 232.843 763.053 233.31 758.9C232.901 751.618 230.976 744.502 227.657 738.008C224.339 731.513 219.7 725.784 214.038 721.186C208.377 716.589 201.817 713.225 194.78 711.31C187.742 709.395 180.383 708.972 173.172 710.066C165.962 711.161 159.059 713.75 152.907 717.668C146.756 721.585 141.49 726.745 137.448 732.816C133.406 738.886 130.677 745.735 129.436 752.921C128.195 760.108 128.469 767.475 130.24 774.55C131.06 777.34 132 780.11 133.07 782.84Z" fill="white"/>
<path fill-rule="evenodd" clip-rule="evenodd" d="M489.63 1028.87C493.957 1028.87 498.187 1030.15 501.787 1032.55C505.386 1034.95 508.193 1038.36 509.851 1042.36C511.509 1046.36 511.944 1050.75 511.102 1055C510.259 1059.24 508.177 1063.14 505.118 1066.2C502.059 1069.26 498.162 1071.35 493.918 1072.19C489.674 1073.03 485.276 1072.6 481.278 1070.94C477.281 1069.29 473.865 1066.48 471.462 1062.89C469.06 1059.29 467.778 1055.06 467.78 1050.73C467.78 1044.93 470.082 1039.38 474.179 1035.28C478.277 1031.18 483.834 1028.87 489.63 1028.87Z" fill="white"/>
<path fill-rule="evenodd" clip-rule="evenodd" d="M398 67.7C403.491 67.698 408.859 69.3244 413.425 72.3735C417.992 75.4226 421.551 79.7575 423.654 84.8298C425.756 89.9021 426.308 95.484 425.238 100.87C424.168 106.255 421.524 111.202 417.643 115.086C413.761 118.969 408.815 121.614 403.429 122.686C398.044 123.758 392.462 123.209 387.389 121.108C382.316 119.007 377.98 115.449 374.929 110.884C371.878 106.318 370.25 100.951 370.25 95.46C370.25 88.0993 373.173 81.04 378.377 75.8342C383.581 70.6285 390.639 67.7027 398 67.7Z" fill="white"/>
<path fill-rule="evenodd" clip-rule="evenodd" d="M1320.75 1020.76C1310.47 1020.77 1300.43 1017.63 1291.98 1011.77C1283.53 1005.91 1277.07 997.606 1273.47 987.973C1269.88 978.341 1269.31 967.839 1271.84 957.874C1274.38 947.91 1279.9 938.958 1287.67 932.22C1357.09 864.34 1404.09 750.467 1428.67 590.6C1435.98 765.213 1416.09 896.68 1369 985L1369.2 984.35C1366.16 994.857 1359.78 1004.09 1351.04 1010.67C1342.29 1017.24 1331.65 1020.79 1320.71 1020.8" fill="white"/>
<path fill-rule="evenodd" clip-rule="evenodd" d="M944.3 1170.54C936.949 1164.96 931.479 1157.26 928.62 1148.49C925.761 1139.71 925.65 1130.27 928.302 1121.43C930.954 1112.59 936.243 1104.77 943.46 1099.01C950.678 1093.26 959.48 1089.85 968.69 1089.23C1055.19 1078.35 1150.61 1022.4 1254.96 921.38C1165.43 1050.26 1079.87 1133.51 998.28 1171.13L998.78 1170.77C990.899 1176.64 981.326 1179.79 971.502 1179.75C961.677 1179.7 952.131 1176.47 944.3 1170.54Z" fill="#FF6501"/>
<path fill-rule="evenodd" clip-rule="evenodd" d="M1264.49 232.35C1254.51 232.34 1244.76 229.372 1236.47 223.822C1228.18 218.271 1221.72 210.387 1217.91 201.166C1214.1 191.944 1213.1 181.8 1215.06 172.015C1217.01 162.23 1221.82 153.244 1228.88 146.192C1235.94 139.14 1244.93 134.339 1254.71 132.396C1264.5 130.453 1274.64 131.455 1283.86 135.276C1293.08 139.096 1300.96 145.564 1306.5 153.861C1312.04 162.158 1315 171.912 1315 181.89C1315 188.517 1313.7 195.079 1311.16 201.202C1308.63 207.324 1304.91 212.888 1300.22 217.574C1295.54 222.259 1289.97 225.976 1283.85 228.512C1277.73 231.047 1271.17 232.351 1264.54 232.35" fill="#FF6501"/>
<path fill-rule="evenodd" clip-rule="evenodd" d="M1504.92 397.67C1486.49 350.837 1430.6 312.817 1337.27 283.61C1383.49 322.443 1406.23 364.31 1405.49 409.21C1405.41 413.32 1405.15 417.45 1404.68 421.61C1405.07 428.901 1406.99 436.029 1410.3 442.536C1413.61 449.044 1418.25 454.786 1423.91 459.396C1429.58 464.005 1436.14 467.38 1443.18 469.303C1450.23 471.225 1457.6 471.654 1464.81 470.561C1472.03 469.467 1478.95 466.876 1485.1 462.954C1491.26 459.032 1496.53 453.866 1500.58 447.786C1504.62 441.706 1507.35 434.849 1508.59 427.652C1509.82 420.456 1509.54 413.081 1507.76 406C1506.93 403.21 1505.98 400.44 1504.92 397.71" fill="white"/>
<path fill-rule="evenodd" clip-rule="evenodd" d="M1148.36 151.64C1144.03 151.64 1139.81 150.357 1136.21 147.954C1132.61 145.55 1129.81 142.134 1128.15 138.137C1126.5 134.14 1126.07 129.742 1126.91 125.5C1127.76 121.257 1129.84 117.36 1132.9 114.302C1135.96 111.244 1139.86 109.162 1144.1 108.319C1148.34 107.476 1152.74 107.911 1156.74 109.568C1160.73 111.224 1164.15 114.029 1166.55 117.627C1168.95 121.225 1170.23 125.454 1170.23 129.78C1170.23 132.652 1169.66 135.495 1168.57 138.148C1167.47 140.801 1165.85 143.211 1163.82 145.241C1161.79 147.271 1159.38 148.881 1156.73 149.979C1154.08 151.077 1151.23 151.641 1148.36 151.64Z" fill="white"/>
<path fill-rule="evenodd" clip-rule="evenodd" d="M1240 1112.8C1234.51 1112.8 1229.15 1111.17 1224.58 1108.12C1220.02 1105.07 1216.46 1100.74 1214.36 1095.67C1212.26 1090.6 1211.71 1085.02 1212.78 1079.64C1213.85 1074.25 1216.5 1069.31 1220.38 1065.43C1224.26 1061.55 1229.2 1058.9 1234.59 1057.83C1239.97 1056.76 1245.55 1057.31 1250.62 1059.41C1255.69 1061.51 1260.02 1065.07 1263.07 1069.63C1266.12 1074.2 1267.75 1079.56 1267.75 1085.05C1267.75 1092.41 1264.83 1099.47 1259.62 1104.67C1254.42 1109.88 1247.36 1112.8 1240 1112.8Z" fill="white"/>
<path fill-rule="evenodd" clip-rule="evenodd" d="M975.4 382.53C1009.47 382.53 1037.06 418.43 1037.06 462.7C1037.06 506.97 1009.47 542.87 975.4 542.87C941.33 542.87 913.75 506.97 913.75 462.7C913.75 418.43 941.36 382.53 975.4 382.53Z" fill="#A34E00"/>
<path fill-rule="evenodd" clip-rule="evenodd" d="M960.82 369.64C994.89 369.64 1022.5 405.53 1022.5 449.81C1022.5 494.09 994.89 529.97 960.82 529.97C926.75 529.97 899.17 494.08 899.17 449.81C899.17 405.54 926.78 369.64 960.82 369.64Z" fill="#11171E"/>
<path fill-rule="evenodd" clip-rule="evenodd" d="M1090.45 738.84C1036.36 790.36 949.98 823.72 852.63 823.72C763.78 823.72 684.05 795.92 629.7 751.89C634.362 746.015 638.163 739.507 640.99 732.56C641.79 730.56 642.52 728.56 643.16 726.56C652.44 697.99 640.87 674.04 614.69 639.84L529 527.88C527.942 526.492 526.408 525.543 524.694 525.216C522.979 524.89 521.204 525.208 519.71 526.11H519.66C518.848 526.579 518.143 527.211 517.588 527.967C517.034 528.722 516.643 529.585 516.44 530.5C516.202 531.406 516.153 532.351 516.296 533.276C516.439 534.202 516.77 535.088 517.27 535.88L603.74 677.38L603.86 677.58C607.32 683.33 606.86 689.94 602.86 692.36C598.86 694.78 592.92 691.98 589.36 686.31L500.84 545.54C499.85 543.97 498.284 542.85 496.479 542.42C494.673 541.991 492.771 542.285 491.18 543.24L490.18 543.84C489.383 544.318 488.688 544.949 488.135 545.696C487.582 546.443 487.181 547.291 486.956 548.193C486.732 549.095 486.687 550.032 486.825 550.952C486.962 551.871 487.28 552.754 487.76 553.55L573.36 695.91C576.83 701.66 576.36 708.27 572.36 710.68C568.36 713.09 562.29 710.39 558.83 704.68L473.06 562.43C472.085 560.825 470.515 559.67 468.692 559.219C466.869 558.767 464.941 559.055 463.33 560.02L462.33 560.6C460.742 561.559 459.591 563.101 459.124 564.896C458.657 566.692 458.911 568.599 459.83 570.21L542.83 714.28C546.19 720.08 545.83 726.64 541.83 729.05C537.83 731.46 531.78 728.76 528.32 723.05L528.2 722.85L443.58 580.24C443.103 579.436 442.472 578.735 441.724 578.176C440.975 577.617 440.123 577.211 439.217 576.983C438.311 576.754 437.368 576.707 436.444 576.844C435.519 576.98 434.631 577.299 433.83 577.78H433.78C432.278 578.664 431.16 580.076 430.644 581.74C430.128 583.405 430.252 585.202 430.99 586.78L490 714.9C508 754.02 523.72 775.45 553.31 780.62C555.43 781 557.55 781.303 559.67 781.53C567.883 782.345 576.173 781.873 584.24 780.13C648.13 838.31 744.61 875.38 852.6 875.38C967.6 875.38 1069.6 833.38 1132.99 768.54C1174.46 775.67 1224.07 740.29 1249.57 682.54C1278.03 618.08 1265.69 550.18 1221.99 530.88C1178.29 511.58 1119.79 548.2 1091.32 612.65C1070.6 659.59 1071.51 708.34 1090.42 738.84M1217.9 553.7C1184.45 556.51 1147.53 583.41 1120.14 625.39C1112.89 636.525 1106.55 648.23 1101.19 660.39C1100.43 662.123 1099.68 663.857 1098.95 665.59C1101.07 650.402 1105.32 635.589 1111.58 621.59C1135.1 568.32 1180.58 536.78 1213.04 551.13C1214.73 551.875 1216.36 552.734 1217.93 553.7H1217.9Z" fill="#A34E00"/>
<path fill-rule="evenodd" clip-rule="evenodd" d="M1056.81 738.84C1002.72 790.36 916.34 823.72 818.99 823.72C730.14 823.72 650.42 795.92 596.06 751.89C600.718 746.012 604.519 739.504 607.35 732.56C608.14 730.56 608.88 728.56 609.54 726.56C618.81 697.99 607.24 674.04 581.06 639.84L495.36 527.92C494.304 526.532 492.772 525.584 491.059 525.257C489.346 524.931 487.573 525.249 486.08 526.15H486.02C485.219 526.632 484.522 527.269 483.968 528.022C483.414 528.775 483.015 529.63 482.792 530.538C482.57 531.446 482.53 532.389 482.674 533.312C482.817 534.236 483.142 535.122 483.63 535.92L570.11 677.42L570.23 677.62C573.69 683.37 573.23 689.98 569.23 692.4C565.23 694.82 559.28 692.02 555.72 686.35L467.21 545.58C466.222 544.011 464.658 542.891 462.854 542.461C461.05 542.031 459.15 542.325 457.56 543.28L456.56 543.88C454.954 544.849 453.798 546.415 453.345 548.235C452.891 550.055 453.177 551.98 454.14 553.59L539.74 695.95C543.2 701.7 542.74 708.31 538.74 710.72C534.74 713.13 528.69 710.43 525.22 704.72L439.43 562.47C438.459 560.866 436.892 559.712 435.073 559.26C433.253 558.809 431.328 559.096 429.72 560.06L428.72 560.64C427.132 561.599 425.982 563.141 425.515 564.936C425.047 566.732 425.301 568.639 426.22 570.25L509.22 714.32C512.57 720.12 512.22 726.68 508.22 729.09C504.22 731.5 498.17 728.8 494.7 723.09L494.59 722.89L409.96 580.28C409.485 579.476 408.855 578.773 408.108 578.214C407.36 577.654 406.509 577.248 405.603 577.019C404.697 576.79 403.755 576.743 402.831 576.881C401.907 577.018 401.02 577.337 400.22 577.82H400.15C398.651 578.707 397.537 580.12 397.025 581.785C396.513 583.449 396.639 585.244 397.38 586.82L456.21 714.92C474.21 754.04 489.95 775.47 519.54 780.64C521.65 781.02 523.78 781.32 525.89 781.55C534.11 782.365 542.406 781.893 550.48 780.15C614.36 838.33 710.85 875.4 818.83 875.4C933.83 875.4 1035.78 833.4 1099.22 768.56C1140.69 775.69 1190.31 740.31 1215.81 682.56C1244.26 618.1 1231.91 550.2 1188.22 530.9C1144.53 511.6 1086.01 548.22 1057.55 612.67C1036.83 659.61 1037.74 708.36 1056.65 738.86M1184.12 553.72C1150.69 556.53 1113.77 583.43 1086.37 625.41C1079.11 636.54 1072.78 648.246 1067.43 660.41C1066.65 662.143 1065.91 663.877 1065.2 665.61C1067.31 650.423 1071.55 635.61 1077.8 621.61C1101.34 568.34 1146.75 536.8 1179.26 551.15C1180.99 551.877 1182.67 552.729 1184.28 553.7L1184.12 553.72Z" fill="#11171E"/>
<path d="M207.5 1268.5V1443H172.5V1329.5L125.75 1443H99.25L52.25 1329.5V1443H17.25V1268.5H57L112.5 1398.25L168 1268.5H207.5ZM303.604 1445.25C290.27 1445.25 278.27 1442.33 267.604 1436.5C256.937 1430.5 248.52 1422.08 242.354 1411.25C236.354 1400.42 233.354 1387.92 233.354 1373.75C233.354 1359.58 236.437 1347.08 242.604 1336.25C248.937 1325.42 257.52 1317.08 268.354 1311.25C279.187 1305.25 291.27 1302.25 304.604 1302.25C317.937 1302.25 330.02 1305.25 340.854 1311.25C351.687 1317.08 360.187 1325.42 366.354 1336.25C372.687 1347.08 375.854 1359.58 375.854 1373.75C375.854 1387.92 372.604 1400.42 366.104 1411.25C359.77 1422.08 351.104 1430.5 340.104 1436.5C329.27 1442.33 317.104 1445.25 303.604 1445.25ZM303.604 1414.75C309.937 1414.75 315.854 1413.25 321.354 1410.25C327.02 1407.08 331.52 1402.42 334.854 1396.25C338.187 1390.08 339.854 1382.58 339.854 1373.75C339.854 1360.58 336.354 1350.5 329.354 1343.5C322.52 1336.33 314.104 1332.75 304.104 1332.75C294.104 1332.75 285.687 1336.33 278.854 1343.5C272.187 1350.5 268.854 1360.58 268.854 1373.75C268.854 1386.92 272.104 1397.08 278.604 1404.25C285.27 1411.25 293.604 1414.75 303.604 1414.75ZM463.027 1445.25C449.694 1445.25 437.694 1442.33 427.027 1436.5C416.361 1430.5 407.944 1422.08 401.777 1411.25C395.777 1400.42 392.777 1387.92 392.777 1373.75C392.777 1359.58 395.861 1347.08 402.027 1336.25C408.361 1325.42 416.944 1317.08 427.777 1311.25C438.611 1305.25 450.694 1302.25 464.027 1302.25C477.361 1302.25 489.444 1305.25 500.277 1311.25C511.111 1317.08 519.611 1325.42 525.777 1336.25C532.111 1347.08 535.277 1359.58 535.277 1373.75C535.277 1387.92 532.027 1400.42 525.527 1411.25C519.194 1422.08 510.527 1430.5 499.527 1436.5C488.694 1442.33 476.527 1445.25 463.027 1445.25ZM463.027 1414.75C469.361 1414.75 475.277 1413.25 480.777 1410.25C486.444 1407.08 490.944 1402.42 494.277 1396.25C497.611 1390.08 499.277 1382.58 499.277 1373.75C499.277 1360.58 495.777 1350.5 488.777 1343.5C481.944 1336.33 473.527 1332.75 463.527 1332.75C453.527 1332.75 445.111 1336.33 438.277 1343.5C431.611 1350.5 428.277 1360.58 428.277 1373.75C428.277 1386.92 431.527 1397.08 438.027 1404.25C444.694 1411.25 453.027 1414.75 463.027 1414.75ZM551.951 1373.25C551.951 1359.25 554.701 1346.83 560.201 1336C565.868 1325.17 573.535 1316.83 583.201 1311C592.868 1305.17 603.618 1302.25 615.451 1302.25C624.451 1302.25 633.035 1304.25 641.201 1308.25C649.368 1312.08 655.868 1317.25 660.701 1323.75V1258H696.201V1443H660.701V1422.5C656.368 1429.33 650.285 1434.83 642.451 1439C634.618 1443.17 625.535 1445.25 615.201 1445.25C603.535 1445.25 592.868 1442.25 583.201 1436.25C573.535 1430.25 565.868 1421.83 560.201 1411C554.701 1400 551.951 1387.42 551.951 1373.25ZM660.951 1373.75C660.951 1365.25 659.285 1358 655.951 1352C652.618 1345.83 648.118 1341.17 642.451 1338C636.785 1334.67 630.701 1333 624.201 1333C617.701 1333 611.701 1334.58 606.201 1337.75C600.701 1340.92 596.201 1345.58 592.701 1351.75C589.368 1357.75 587.701 1364.92 587.701 1373.25C587.701 1381.58 589.368 1388.92 592.701 1395.25C596.201 1401.42 600.701 1406.17 606.201 1409.5C611.868 1412.83 617.868 1414.5 624.201 1414.5C630.701 1414.5 636.785 1412.92 642.451 1409.75C648.118 1406.42 652.618 1401.75 655.951 1395.75C659.285 1389.58 660.951 1382.25 660.951 1373.75ZM862.885 1304.5L777.135 1508.5H739.885L769.885 1439.5L714.385 1304.5H753.635L789.385 1401.25L825.635 1304.5H862.885ZM989.502 1268.5V1296.75H916.752V1341.5H972.502V1369.25H916.752V1443H881.752V1268.5H989.502ZM1075.82 1445.25C1062.49 1445.25 1050.49 1442.33 1039.82 1436.5C1029.15 1430.5 1020.74 1422.08 1014.57 1411.25C1008.57 1400.42 1005.57 1387.92 1005.57 1373.75C1005.57 1359.58 1008.65 1347.08 1014.82 1336.25C1021.15 1325.42 1029.74 1317.08 1040.57 1311.25C1051.4 1305.25 1063.49 1302.25 1076.82 1302.25C1090.15 1302.25 1102.24 1305.25 1113.07 1311.25C1123.9 1317.08 1132.4 1325.42 1138.57 1336.25C1144.9 1347.08 1148.07 1359.58 1148.07 1373.75C1148.07 1387.92 1144.82 1400.42 1138.32 1411.25C1131.99 1422.08 1123.32 1430.5 1112.32 1436.5C1101.49 1442.33 1089.32 1445.25 1075.82 1445.25ZM1075.82 1414.75C1082.15 1414.75 1088.07 1413.25 1093.57 1410.25C1099.24 1407.08 1103.74 1402.42 1107.07 1396.25C1110.4 1390.08 1112.07 1382.58 1112.07 1373.75C1112.07 1360.58 1108.57 1350.5 1101.57 1343.5C1094.74 1336.33 1086.32 1332.75 1076.32 1332.75C1066.32 1332.75 1057.9 1336.33 1051.07 1343.5C1044.4 1350.5 1041.07 1360.58 1041.07 1373.75C1041.07 1386.92 1044.32 1397.08 1050.82 1404.25C1057.49 1411.25 1065.82 1414.75 1075.82 1414.75ZM1235.24 1445.25C1221.91 1445.25 1209.91 1442.33 1199.24 1436.5C1188.58 1430.5 1180.16 1422.08 1173.99 1411.25C1167.99 1400.42 1164.99 1387.92 1164.99 1373.75C1164.99 1359.58 1168.08 1347.08 1174.24 1336.25C1180.58 1325.42 1189.16 1317.08 1199.99 1311.25C1210.83 1305.25 1222.91 1302.25 1236.24 1302.25C1249.58 1302.25 1261.66 1305.25 1272.49 1311.25C1283.33 1317.08 1291.83 1325.42 1297.99 1336.25C1304.33 1347.08 1307.49 1359.58 1307.49 1373.75C1307.49 1387.92 1304.24 1400.42 1297.74 1411.25C1291.41 1422.08 1282.74 1430.5 1271.74 1436.5C1260.91 1442.33 1248.74 1445.25 1235.24 1445.25ZM1235.24 1414.75C1241.58 1414.75 1247.49 1413.25 1252.99 1410.25C1258.66 1407.08 1263.16 1402.42 1266.49 1396.25C1269.83 1390.08 1271.49 1382.58 1271.49 1373.75C1271.49 1360.58 1267.99 1350.5 1260.99 1343.5C1254.16 1336.33 1245.74 1332.75 1235.74 1332.75C1225.74 1332.75 1217.33 1336.33 1210.49 1343.5C1203.83 1350.5 1200.49 1360.58 1200.49 1373.75C1200.49 1386.92 1203.74 1397.08 1210.24 1404.25C1216.91 1411.25 1225.24 1414.75 1235.24 1414.75ZM1324.17 1373.25C1324.17 1359.25 1326.92 1346.83 1332.42 1336C1338.08 1325.17 1345.75 1316.83 1355.42 1311C1365.08 1305.17 1375.83 1302.25 1387.67 1302.25C1396.67 1302.25 1405.25 1304.25 1413.42 1308.25C1421.58 1312.08 1428.08 1317.25 1432.92 1323.75V1258H1468.42V1443H1432.92V1422.5C1428.58 1429.33 1422.5 1434.83 1414.67 1439C1406.83 1443.17 1397.75 1445.25 1387.42 1445.25C1375.75 1445.25 1365.08 1442.25 1355.42 1436.25C1345.75 1430.25 1338.08 1421.83 1332.42 1411C1326.92 1400 1324.17 1387.42 1324.17 1373.25ZM1433.17 1373.75C1433.17 1365.25 1431.5 1358 1428.17 1352C1424.83 1345.83 1420.33 1341.17 1414.67 1338C1409 1334.67 1402.92 1333 1396.42 1333C1389.92 1333 1383.92 1334.58 1378.42 1337.75C1372.92 1340.92 1368.42 1345.58 1364.92 1351.75C1361.58 1357.75 1359.92 1364.92 1359.92 1373.25C1359.92 1381.58 1361.58 1388.92 1364.92 1395.25C1368.42 1401.42 1372.92 1406.17 1378.42 1409.5C1384.08 1412.83 1390.08 1414.5 1396.42 1414.5C1402.92 1414.5 1409 1412.92 1414.67 1409.75C1420.33 1406.42 1424.83 1401.75 1428.17 1395.75C1431.5 1389.58 1433.17 1382.25 1433.17 1373.75ZM1635.1 1304.5L1549.35 1508.5H1512.1L1542.1 1439.5L1486.6 1304.5H1525.85L1561.6 1401.25L1597.85 1304.5H1635.1Z" fill="white"/>
<path d="M356.76 1575.52L342.04 1603.87V1620H334.744V1603.87L319.96 1575.52H328.088L338.392 1597.34L348.696 1575.52H356.76ZM393.846 1620.58C390.518 1620.58 387.51 1619.83 384.822 1618.34C382.134 1616.8 380.022 1614.67 378.486 1611.94C376.95 1609.16 376.182 1605.96 376.182 1602.34C376.182 1598.75 376.971 1595.57 378.55 1592.8C380.129 1590.03 382.283 1587.89 385.014 1586.4C387.745 1584.91 390.795 1584.16 394.166 1584.16C397.537 1584.16 400.587 1584.91 403.318 1586.4C406.049 1587.89 408.203 1590.03 409.782 1592.8C411.361 1595.57 412.15 1598.75 412.15 1602.34C412.15 1605.92 411.339 1609.1 409.718 1611.87C408.097 1614.65 405.878 1616.8 403.062 1618.34C400.289 1619.83 397.217 1620.58 393.846 1620.58ZM393.846 1614.24C395.723 1614.24 397.473 1613.79 399.094 1612.9C400.758 1612 402.102 1610.66 403.126 1608.86C404.15 1607.07 404.662 1604.9 404.662 1602.34C404.662 1599.78 404.171 1597.62 403.19 1595.87C402.209 1594.08 400.907 1592.74 399.286 1591.84C397.665 1590.94 395.915 1590.5 394.038 1590.5C392.161 1590.5 390.411 1590.94 388.79 1591.84C387.211 1592.74 385.953 1594.08 385.014 1595.87C384.075 1597.62 383.606 1599.78 383.606 1602.34C383.606 1606.13 384.566 1609.08 386.486 1611.17C388.449 1613.22 390.902 1614.24 393.846 1614.24ZM467.299 1584.74V1620H460.003V1615.84C458.851 1617.29 457.336 1618.44 455.459 1619.3C453.624 1620.11 451.661 1620.51 449.571 1620.51C446.797 1620.51 444.301 1619.94 442.083 1618.78C439.907 1617.63 438.179 1615.93 436.899 1613.66C435.661 1611.4 435.043 1608.67 435.043 1605.47V1584.74H442.275V1604.38C442.275 1607.54 443.064 1609.97 444.643 1611.68C446.221 1613.34 448.376 1614.18 451.107 1614.18C453.837 1614.18 455.992 1613.34 457.571 1611.68C459.192 1609.97 460.003 1607.54 460.003 1604.38V1584.74H467.299ZM500.221 1589.86C501.288 1588.06 502.696 1586.68 504.445 1585.7C506.237 1584.67 508.349 1584.16 510.781 1584.16V1591.71H508.925C506.066 1591.71 503.89 1592.44 502.397 1593.89C500.946 1595.34 500.221 1597.86 500.221 1601.44V1620H492.925V1584.74H500.221V1589.86ZM612.961 1575.52V1620H605.665V1589.54L592.097 1620H587.041L573.409 1589.54V1620H566.113V1575.52H573.985L589.601 1610.4L605.153 1575.52H612.961ZM653.846 1620.58C650.518 1620.58 647.51 1619.83 644.822 1618.34C642.134 1616.8 640.022 1614.67 638.486 1611.94C636.95 1609.16 636.182 1605.96 636.182 1602.34C636.182 1598.75 636.971 1595.57 638.55 1592.8C640.129 1590.03 642.283 1587.89 645.014 1586.4C647.745 1584.91 650.795 1584.16 654.166 1584.16C657.537 1584.16 660.587 1584.91 663.318 1586.4C666.049 1587.89 668.203 1590.03 669.782 1592.8C671.361 1595.57 672.15 1598.75 672.15 1602.34C672.15 1605.92 671.339 1609.1 669.718 1611.87C668.097 1614.65 665.878 1616.8 663.062 1618.34C660.289 1619.83 657.217 1620.58 653.846 1620.58ZM653.846 1614.24C655.723 1614.24 657.473 1613.79 659.094 1612.9C660.758 1612 662.102 1610.66 663.126 1608.86C664.15 1607.07 664.662 1604.9 664.662 1602.34C664.662 1599.78 664.171 1597.62 663.19 1595.87C662.209 1594.08 660.907 1592.74 659.286 1591.84C657.665 1590.94 655.915 1590.5 654.038 1590.5C652.161 1590.5 650.411 1590.94 648.79 1591.84C647.211 1592.74 645.953 1594.08 645.014 1595.87C644.075 1597.62 643.606 1599.78 643.606 1602.34C643.606 1606.13 644.566 1609.08 646.486 1611.17C648.449 1613.22 650.902 1614.24 653.846 1614.24ZM710.659 1620.58C707.331 1620.58 704.323 1619.83 701.635 1618.34C698.947 1616.8 696.835 1614.67 695.299 1611.94C693.763 1609.16 692.995 1605.96 692.995 1602.34C692.995 1598.75 693.784 1595.57 695.363 1592.8C696.941 1590.03 699.096 1587.89 701.827 1586.4C704.557 1584.91 707.608 1584.16 710.979 1584.16C714.349 1584.16 717.4 1584.91 720.131 1586.4C722.861 1587.89 725.016 1590.03 726.595 1592.8C728.173 1595.57 728.963 1598.75 728.963 1602.34C728.963 1605.92 728.152 1609.1 726.531 1611.87C724.909 1614.65 722.691 1616.8 719.875 1618.34C717.101 1619.83 714.029 1620.58 710.659 1620.58ZM710.659 1614.24C712.536 1614.24 714.285 1613.79 715.907 1612.9C717.571 1612 718.915 1610.66 719.939 1608.86C720.963 1607.07 721.475 1604.9 721.475 1602.34C721.475 1599.78 720.984 1597.62 720.003 1595.87C719.021 1594.08 717.72 1592.74 716.099 1591.84C714.477 1590.94 712.728 1590.5 710.851 1590.5C708.973 1590.5 707.224 1590.94 705.603 1591.84C704.024 1592.74 702.765 1594.08 701.827 1595.87C700.888 1597.62 700.419 1599.78 700.419 1602.34C700.419 1606.13 701.379 1609.08 703.299 1611.17C705.261 1613.22 707.715 1614.24 710.659 1614.24ZM749.743 1602.21C749.743 1598.67 750.468 1595.53 751.919 1592.8C753.412 1590.07 755.418 1587.96 757.935 1586.46C760.495 1584.93 763.332 1584.16 766.447 1584.16C768.751 1584.16 771.012 1584.67 773.231 1585.7C775.492 1586.68 777.284 1588 778.607 1589.66V1572.64H785.967V1620H778.607V1614.69C777.412 1616.39 775.748 1617.8 773.615 1618.91C771.524 1620.02 769.114 1620.58 766.383 1620.58C763.311 1620.58 760.495 1619.81 757.935 1618.27C755.418 1616.69 753.412 1614.52 751.919 1611.74C750.468 1608.93 749.743 1605.75 749.743 1602.21ZM778.607 1602.34C778.607 1599.9 778.095 1597.79 777.071 1596C776.09 1594.21 774.788 1592.84 773.167 1591.9C771.546 1590.97 769.796 1590.5 767.919 1590.5C766.042 1590.5 764.292 1590.97 762.671 1591.9C761.05 1592.8 759.727 1594.14 758.703 1595.94C757.722 1597.69 757.231 1599.78 757.231 1602.21C757.231 1604.64 757.722 1606.77 758.703 1608.61C759.727 1610.44 761.05 1611.85 762.671 1612.83C764.335 1613.77 766.084 1614.24 767.919 1614.24C769.796 1614.24 771.546 1613.77 773.167 1612.83C774.788 1611.89 776.09 1610.53 777.071 1608.74C778.095 1606.9 778.607 1604.77 778.607 1602.34ZM819.55 1611.23L811.806 1628.9H807.07L811.614 1611.23H819.55ZM907.51 1575.52L892.79 1603.87V1620H885.494V1603.87L870.71 1575.52H878.838L889.142 1597.34L899.446 1575.52H907.51ZM944.596 1620.58C941.268 1620.58 938.26 1619.83 935.572 1618.34C932.884 1616.8 930.772 1614.67 929.236 1611.94C927.7 1609.16 926.932 1605.96 926.932 1602.34C926.932 1598.75 927.721 1595.57 929.3 1592.8C930.879 1590.03 933.033 1587.89 935.764 1586.4C938.495 1584.91 941.545 1584.16 944.916 1584.16C948.287 1584.16 951.337 1584.91 954.068 1586.4C956.799 1587.89 958.953 1590.03 960.532 1592.8C962.111 1595.57 962.9 1598.75 962.9 1602.34C962.9 1605.92 962.089 1609.1 960.468 1611.87C958.847 1614.65 956.628 1616.8 953.812 1618.34C951.039 1619.83 947.967 1620.58 944.596 1620.58ZM944.596 1614.24C946.473 1614.24 948.223 1613.79 949.844 1612.9C951.508 1612 952.852 1610.66 953.876 1608.86C954.9 1607.07 955.412 1604.9 955.412 1602.34C955.412 1599.78 954.921 1597.62 953.94 1595.87C952.959 1594.08 951.657 1592.74 950.036 1591.84C948.415 1590.94 946.665 1590.5 944.788 1590.5C942.911 1590.5 941.161 1590.94 939.54 1591.84C937.961 1592.74 936.703 1594.08 935.764 1595.87C934.825 1597.62 934.356 1599.78 934.356 1602.34C934.356 1606.13 935.316 1609.08 937.236 1611.17C939.199 1613.22 941.652 1614.24 944.596 1614.24ZM1018.05 1584.74V1620H1010.75V1615.84C1009.6 1617.29 1008.09 1618.44 1006.21 1619.3C1004.37 1620.11 1002.41 1620.51 1000.32 1620.51C997.547 1620.51 995.051 1619.94 992.833 1618.78C990.657 1617.63 988.929 1615.93 987.649 1613.66C986.411 1611.4 985.793 1608.67 985.793 1605.47V1584.74H993.025V1604.38C993.025 1607.54 993.814 1609.97 995.393 1611.68C996.971 1613.34 999.126 1614.18 1001.86 1614.18C1004.59 1614.18 1006.74 1613.34 1008.32 1611.68C1009.94 1609.97 1010.75 1607.54 1010.75 1604.38V1584.74H1018.05ZM1050.97 1589.86C1052.04 1588.06 1053.45 1586.68 1055.2 1585.7C1056.99 1584.67 1059.1 1584.16 1061.53 1584.16V1591.71H1059.68C1056.82 1591.71 1054.64 1592.44 1053.15 1593.89C1051.7 1595.34 1050.97 1597.86 1050.97 1601.44V1620H1043.68V1584.74H1050.97V1589.86ZM1143.04 1575.52V1581.47H1124.16V1594.59H1138.88V1600.54H1124.16V1620H1116.86V1575.52H1143.04ZM1181.1 1620.58C1177.77 1620.58 1174.76 1619.83 1172.07 1618.34C1169.38 1616.8 1167.27 1614.67 1165.74 1611.94C1164.2 1609.16 1163.43 1605.96 1163.43 1602.34C1163.43 1598.75 1164.22 1595.57 1165.8 1592.8C1167.38 1590.03 1169.53 1587.89 1172.26 1586.4C1174.99 1584.91 1178.05 1584.16 1181.42 1584.16C1184.79 1584.16 1187.84 1584.91 1190.57 1586.4C1193.3 1587.89 1195.45 1590.03 1197.03 1592.8C1198.61 1595.57 1199.4 1598.75 1199.4 1602.34C1199.4 1605.92 1198.59 1609.1 1196.97 1611.87C1195.35 1614.65 1193.13 1616.8 1190.31 1618.34C1187.54 1619.83 1184.47 1620.58 1181.1 1620.58ZM1181.1 1614.24C1182.97 1614.24 1184.72 1613.79 1186.34 1612.9C1188.01 1612 1189.35 1610.66 1190.38 1608.86C1191.4 1607.07 1191.91 1604.9 1191.91 1602.34C1191.91 1599.78 1191.42 1597.62 1190.44 1595.87C1189.46 1594.08 1188.16 1592.74 1186.54 1591.84C1184.91 1590.94 1183.17 1590.5 1181.29 1590.5C1179.41 1590.5 1177.66 1590.94 1176.04 1591.84C1174.46 1592.74 1173.2 1594.08 1172.26 1595.87C1171.33 1597.62 1170.86 1599.78 1170.86 1602.34C1170.86 1606.13 1171.82 1609.08 1173.74 1611.17C1175.7 1613.22 1178.15 1614.24 1181.1 1614.24ZM1237.91 1620.58C1234.58 1620.58 1231.57 1619.83 1228.88 1618.34C1226.2 1616.8 1224.08 1614.67 1222.55 1611.94C1221.01 1609.16 1220.24 1605.96 1220.24 1602.34C1220.24 1598.75 1221.03 1595.57 1222.61 1592.8C1224.19 1590.03 1226.35 1587.89 1229.08 1586.4C1231.81 1584.91 1234.86 1584.16 1238.23 1584.16C1241.6 1584.16 1244.65 1584.91 1247.38 1586.4C1250.11 1587.89 1252.27 1590.03 1253.84 1592.8C1255.42 1595.57 1256.21 1598.75 1256.21 1602.34C1256.21 1605.92 1255.4 1609.1 1253.78 1611.87C1252.16 1614.65 1249.94 1616.8 1247.12 1618.34C1244.35 1619.83 1241.28 1620.58 1237.91 1620.58ZM1237.91 1614.24C1239.79 1614.24 1241.54 1613.79 1243.16 1612.9C1244.82 1612 1246.16 1610.66 1247.19 1608.86C1248.21 1607.07 1248.72 1604.9 1248.72 1602.34C1248.72 1599.78 1248.23 1597.62 1247.25 1595.87C1246.27 1594.08 1244.97 1592.74 1243.35 1591.84C1241.73 1590.94 1239.98 1590.5 1238.1 1590.5C1236.22 1590.5 1234.47 1590.94 1232.85 1591.84C1231.27 1592.74 1230.02 1594.08 1229.08 1595.87C1228.14 1597.62 1227.67 1599.78 1227.67 1602.34C1227.67 1606.13 1228.63 1609.08 1230.55 1611.17C1232.51 1613.22 1234.96 1614.24 1237.91 1614.24ZM1276.99 1602.21C1276.99 1598.67 1277.72 1595.53 1279.17 1592.8C1280.66 1590.07 1282.67 1587.96 1285.19 1586.46C1287.75 1584.93 1290.58 1584.16 1293.7 1584.16C1296 1584.16 1298.26 1584.67 1300.48 1585.7C1302.74 1586.68 1304.53 1588 1305.86 1589.66V1572.64H1313.22V1620H1305.86V1614.69C1304.66 1616.39 1303 1617.8 1300.87 1618.91C1298.77 1620.02 1296.36 1620.58 1293.63 1620.58C1290.56 1620.58 1287.75 1619.81 1285.19 1618.27C1282.67 1616.69 1280.66 1614.52 1279.17 1611.74C1277.72 1608.93 1276.99 1605.75 1276.99 1602.21ZM1305.86 1602.34C1305.86 1599.9 1305.35 1597.79 1304.32 1596C1303.34 1594.21 1302.04 1592.84 1300.42 1591.9C1298.8 1590.97 1297.05 1590.5 1295.17 1590.5C1293.29 1590.5 1291.54 1590.97 1289.92 1591.9C1288.3 1592.8 1286.98 1594.14 1285.95 1595.94C1284.97 1597.69 1284.48 1599.78 1284.48 1602.21C1284.48 1604.64 1284.97 1606.77 1285.95 1608.61C1286.98 1610.44 1288.3 1611.85 1289.92 1612.83C1291.59 1613.77 1293.33 1614.24 1295.17 1614.24C1297.05 1614.24 1298.8 1613.77 1300.42 1612.83C1302.04 1611.89 1303.34 1610.53 1304.32 1608.74C1305.35 1606.9 1305.86 1604.77 1305.86 1602.34Z" fill="white"/>
</svg>
